<mxfile host="app.diagrams.net" agent="Mozilla/5.0 (Windows NT 10.0; Win64; x64) AppleWebKit/537.36 (KHTML, like Gecko) Chrome/128.0.0.0 Safari/537.36" version="24.7.12">
  <diagram name="Page-1" id="B-Fcu4K9Jkmmhg7dZITD">
    <mxGraphModel dx="1050" dy="565" grid="1" gridSize="10" guides="1" tooltips="1" connect="1" arrows="1" fold="1" page="1" pageScale="1" pageWidth="827" pageHeight="1169" math="0" shadow="0">
      <root>
        <mxCell id="0" />
        <mxCell id="1" parent="0" />
        <mxCell id="4VnHZdlEQz3FXxKA92Oz-1" value="" style="html=1;fillColor=#f5f5f5;fontColor=#333333;strokeColor=#666666;" vertex="1" parent="1">
          <mxGeometry x="40" y="40" width="740" height="590" as="geometry" />
        </mxCell>
        <mxCell id="4VnHZdlEQz3FXxKA92Oz-2" value="«c&lt;span&gt;omponent&lt;/span&gt;»&lt;br&gt;&lt;b&gt;visualize&lt;/b&gt;" style="html=1;dropTarget=0;fontStyle=0;fillColor=#dae8fc;strokeColor=#6c8ebf;" vertex="1" parent="1">
          <mxGeometry x="265" y="70" width="290" height="500" as="geometry" />
        </mxCell>
        <mxCell id="4VnHZdlEQz3FXxKA92Oz-3" value="" style="shape=module;jettyWidth=8;jettyHeight=4;fillColor=#dae8fc;strokeColor=#6c8ebf;" vertex="1" parent="4VnHZdlEQz3FXxKA92Oz-2">
          <mxGeometry x="1" width="20" height="20" relative="1" as="geometry">
            <mxPoint x="-27" y="7" as="offset" />
          </mxGeometry>
        </mxCell>
        <mxCell id="4VnHZdlEQz3FXxKA92Oz-7" value="«c&lt;span&gt;omponent&lt;/span&gt;»&lt;br&gt;&lt;b&gt;RoutePlanning&lt;/b&gt;" style="html=1;dropTarget=0;fontStyle=0;fillColor=#dae8fc;strokeColor=#6c8ebf;align=center;" vertex="1" parent="1">
          <mxGeometry x="75" y="80" width="130" height="50" as="geometry" />
        </mxCell>
        <mxCell id="4VnHZdlEQz3FXxKA92Oz-8" value="" style="shape=module;jettyWidth=8;jettyHeight=4;fillColor=#dae8fc;strokeColor=#6c8ebf;" vertex="1" parent="4VnHZdlEQz3FXxKA92Oz-7">
          <mxGeometry x="1" width="20" height="20" relative="1" as="geometry">
            <mxPoint x="-27" y="7" as="offset" />
          </mxGeometry>
        </mxCell>
        <mxCell id="4VnHZdlEQz3FXxKA92Oz-13" value="" style="endArrow=open;endSize=12;dashed=1;html=1;rounded=0;exitX=1;exitY=0.5;exitDx=0;exitDy=0;fillColor=#dae8fc;strokeColor=#6c8ebf;entryX=-0.002;entryY=0.07;entryDx=0;entryDy=0;entryPerimeter=0;" edge="1" parent="1" source="4VnHZdlEQz3FXxKA92Oz-7" target="4VnHZdlEQz3FXxKA92Oz-2">
          <mxGeometry width="160" relative="1" as="geometry">
            <mxPoint x="215" y="267" as="sourcePoint" />
            <mxPoint x="265" y="342" as="targetPoint" />
          </mxGeometry>
        </mxCell>
        <mxCell id="4VnHZdlEQz3FXxKA92Oz-16" value="«c&lt;span&gt;omponent&lt;/span&gt;»&lt;br&gt;&lt;b&gt;mviz&lt;/b&gt;" style="html=1;dropTarget=0;fontStyle=0;fillColor=#dae8fc;strokeColor=#6c8ebf;align=center;" vertex="1" parent="1">
          <mxGeometry x="615" y="292" width="130" height="50" as="geometry" />
        </mxCell>
        <mxCell id="4VnHZdlEQz3FXxKA92Oz-17" value="" style="shape=module;jettyWidth=8;jettyHeight=4;fillColor=#dae8fc;strokeColor=#6c8ebf;" vertex="1" parent="4VnHZdlEQz3FXxKA92Oz-16">
          <mxGeometry x="1" width="20" height="20" relative="1" as="geometry">
            <mxPoint x="-27" y="7" as="offset" />
          </mxGeometry>
        </mxCell>
        <mxCell id="4VnHZdlEQz3FXxKA92Oz-18" value="" style="endArrow=open;endSize=12;dashed=1;html=1;rounded=0;entryX=0;entryY=0.5;entryDx=0;entryDy=0;fillColor=#dae8fc;strokeColor=#6c8ebf;" edge="1" parent="1" source="4VnHZdlEQz3FXxKA92Oz-2" target="4VnHZdlEQz3FXxKA92Oz-16">
          <mxGeometry width="160" relative="1" as="geometry">
            <mxPoint x="565" y="185" as="sourcePoint" />
            <mxPoint x="565" y="146" as="targetPoint" />
          </mxGeometry>
        </mxCell>
        <mxCell id="4VnHZdlEQz3FXxKA92Oz-19" value="«c&lt;span&gt;omponent&lt;/span&gt;»&lt;br&gt;&lt;b&gt;Vehicle&lt;/b&gt;" style="html=1;dropTarget=0;fontStyle=0;fillColor=#dae8fc;strokeColor=#6c8ebf;align=center;" vertex="1" parent="1">
          <mxGeometry x="75" y="152" width="130" height="50" as="geometry" />
        </mxCell>
        <mxCell id="4VnHZdlEQz3FXxKA92Oz-20" value="" style="shape=module;jettyWidth=8;jettyHeight=4;fillColor=#dae8fc;strokeColor=#6c8ebf;" vertex="1" parent="4VnHZdlEQz3FXxKA92Oz-19">
          <mxGeometry x="1" width="20" height="20" relative="1" as="geometry">
            <mxPoint x="-27" y="7" as="offset" />
          </mxGeometry>
        </mxCell>
        <mxCell id="4VnHZdlEQz3FXxKA92Oz-21" value="" style="endArrow=open;endSize=12;dashed=1;html=1;rounded=0;exitX=1;exitY=0.5;exitDx=0;exitDy=0;fillColor=#dae8fc;strokeColor=#6c8ebf;entryX=0.001;entryY=0.212;entryDx=0;entryDy=0;entryPerimeter=0;" edge="1" parent="1" source="4VnHZdlEQz3FXxKA92Oz-19" target="4VnHZdlEQz3FXxKA92Oz-2">
          <mxGeometry width="160" relative="1" as="geometry">
            <mxPoint x="215" y="330" as="sourcePoint" />
            <mxPoint x="264" y="168" as="targetPoint" />
          </mxGeometry>
        </mxCell>
        <mxCell id="4VnHZdlEQz3FXxKA92Oz-22" value="«c&lt;span&gt;omponent&lt;/span&gt;»&lt;br&gt;&lt;b&gt;Map/Mapping&lt;/b&gt;" style="html=1;dropTarget=0;fontStyle=0;fillColor=#dae8fc;strokeColor=#6c8ebf;align=center;" vertex="1" parent="1">
          <mxGeometry x="75" y="224" width="130" height="50" as="geometry" />
        </mxCell>
        <mxCell id="4VnHZdlEQz3FXxKA92Oz-23" value="" style="shape=module;jettyWidth=8;jettyHeight=4;fillColor=#dae8fc;strokeColor=#6c8ebf;" vertex="1" parent="4VnHZdlEQz3FXxKA92Oz-22">
          <mxGeometry x="1" width="20" height="20" relative="1" as="geometry">
            <mxPoint x="-27" y="7" as="offset" />
          </mxGeometry>
        </mxCell>
        <mxCell id="4VnHZdlEQz3FXxKA92Oz-24" value="" style="endArrow=open;endSize=12;dashed=1;html=1;rounded=0;exitX=1;exitY=0.5;exitDx=0;exitDy=0;fillColor=#dae8fc;strokeColor=#6c8ebf;entryX=-0.002;entryY=0.358;entryDx=0;entryDy=0;entryPerimeter=0;" edge="1" parent="1" source="4VnHZdlEQz3FXxKA92Oz-22" target="4VnHZdlEQz3FXxKA92Oz-2">
          <mxGeometry width="160" relative="1" as="geometry">
            <mxPoint x="215" y="395" as="sourcePoint" />
            <mxPoint x="264" y="233" as="targetPoint" />
          </mxGeometry>
        </mxCell>
        <mxCell id="4VnHZdlEQz3FXxKA92Oz-25" value="«c&lt;span&gt;omponent&lt;/span&gt;»&lt;br&gt;&lt;b&gt;MotionPlanning&lt;/b&gt;" style="html=1;dropTarget=0;fontStyle=0;fillColor=#dae8fc;strokeColor=#6c8ebf;align=center;" vertex="1" parent="1">
          <mxGeometry x="75" y="296" width="130" height="50" as="geometry" />
        </mxCell>
        <mxCell id="4VnHZdlEQz3FXxKA92Oz-26" value="" style="shape=module;jettyWidth=8;jettyHeight=4;fillColor=#dae8fc;strokeColor=#6c8ebf;" vertex="1" parent="4VnHZdlEQz3FXxKA92Oz-25">
          <mxGeometry x="1" width="20" height="20" relative="1" as="geometry">
            <mxPoint x="-27" y="7" as="offset" />
          </mxGeometry>
        </mxCell>
        <mxCell id="4VnHZdlEQz3FXxKA92Oz-27" value="" style="endArrow=open;endSize=12;dashed=1;html=1;rounded=0;exitX=1;exitY=0.5;exitDx=0;exitDy=0;fillColor=#dae8fc;strokeColor=#6c8ebf;entryX=0;entryY=0.5;entryDx=0;entryDy=0;" edge="1" parent="1" source="4VnHZdlEQz3FXxKA92Oz-25" target="4VnHZdlEQz3FXxKA92Oz-2">
          <mxGeometry width="160" relative="1" as="geometry">
            <mxPoint x="215" y="459" as="sourcePoint" />
            <mxPoint x="264" y="297" as="targetPoint" />
          </mxGeometry>
        </mxCell>
        <mxCell id="4VnHZdlEQz3FXxKA92Oz-28" value="«c&lt;span&gt;omponent&lt;/span&gt;»&lt;br&gt;&lt;b&gt;Localization&lt;/b&gt;" style="html=1;dropTarget=0;fontStyle=0;fillColor=#dae8fc;strokeColor=#6c8ebf;align=center;" vertex="1" parent="1">
          <mxGeometry x="75" y="368" width="130" height="50" as="geometry" />
        </mxCell>
        <mxCell id="4VnHZdlEQz3FXxKA92Oz-29" value="" style="shape=module;jettyWidth=8;jettyHeight=4;fillColor=#dae8fc;strokeColor=#6c8ebf;" vertex="1" parent="4VnHZdlEQz3FXxKA92Oz-28">
          <mxGeometry x="1" width="20" height="20" relative="1" as="geometry">
            <mxPoint x="-27" y="7" as="offset" />
          </mxGeometry>
        </mxCell>
        <mxCell id="4VnHZdlEQz3FXxKA92Oz-30" value="" style="endArrow=open;endSize=12;dashed=1;html=1;rounded=0;exitX=1;exitY=0.5;exitDx=0;exitDy=0;fillColor=#dae8fc;strokeColor=#6c8ebf;entryX=0.003;entryY=0.646;entryDx=0;entryDy=0;entryPerimeter=0;" edge="1" parent="1" source="4VnHZdlEQz3FXxKA92Oz-28" target="4VnHZdlEQz3FXxKA92Oz-2">
          <mxGeometry width="160" relative="1" as="geometry">
            <mxPoint x="215" y="523" as="sourcePoint" />
            <mxPoint x="264" y="361" as="targetPoint" />
          </mxGeometry>
        </mxCell>
        <mxCell id="4VnHZdlEQz3FXxKA92Oz-31" value="«c&lt;span&gt;omponent&lt;/span&gt;»&lt;br&gt;&lt;b&gt;MissionPlanning&lt;/b&gt;" style="html=1;dropTarget=0;fontStyle=0;fillColor=#dae8fc;strokeColor=#6c8ebf;align=center;" vertex="1" parent="1">
          <mxGeometry x="75" y="440" width="130" height="50" as="geometry" />
        </mxCell>
        <mxCell id="4VnHZdlEQz3FXxKA92Oz-32" value="" style="shape=module;jettyWidth=8;jettyHeight=4;fillColor=#dae8fc;strokeColor=#6c8ebf;" vertex="1" parent="4VnHZdlEQz3FXxKA92Oz-31">
          <mxGeometry x="1" width="20" height="20" relative="1" as="geometry">
            <mxPoint x="-27" y="7" as="offset" />
          </mxGeometry>
        </mxCell>
        <mxCell id="4VnHZdlEQz3FXxKA92Oz-33" value="" style="endArrow=open;endSize=12;dashed=1;html=1;rounded=0;exitX=1;exitY=0.5;exitDx=0;exitDy=0;fillColor=#dae8fc;strokeColor=#6c8ebf;entryX=0.001;entryY=0.792;entryDx=0;entryDy=0;entryPerimeter=0;" edge="1" parent="1" source="4VnHZdlEQz3FXxKA92Oz-31" target="4VnHZdlEQz3FXxKA92Oz-2">
          <mxGeometry width="160" relative="1" as="geometry">
            <mxPoint x="215" y="589" as="sourcePoint" />
            <mxPoint x="264" y="427" as="targetPoint" />
          </mxGeometry>
        </mxCell>
        <mxCell id="4VnHZdlEQz3FXxKA92Oz-34" value="«c&lt;span&gt;omponent&lt;/span&gt;»&lt;br&gt;&lt;b&gt;......&lt;/b&gt;" style="html=1;dropTarget=0;fontStyle=0;fillColor=#dae8fc;strokeColor=#6c8ebf;align=center;" vertex="1" parent="1">
          <mxGeometry x="75" y="512" width="130" height="50" as="geometry" />
        </mxCell>
        <mxCell id="4VnHZdlEQz3FXxKA92Oz-35" value="" style="shape=module;jettyWidth=8;jettyHeight=4;fillColor=#dae8fc;strokeColor=#6c8ebf;" vertex="1" parent="4VnHZdlEQz3FXxKA92Oz-34">
          <mxGeometry x="1" width="20" height="20" relative="1" as="geometry">
            <mxPoint x="-27" y="7" as="offset" />
          </mxGeometry>
        </mxCell>
        <mxCell id="4VnHZdlEQz3FXxKA92Oz-36" value="" style="endArrow=open;endSize=12;dashed=1;html=1;rounded=0;exitX=1;exitY=0.5;exitDx=0;exitDy=0;fillColor=#dae8fc;strokeColor=#6c8ebf;entryX=-0.002;entryY=0.07;entryDx=0;entryDy=0;entryPerimeter=0;" edge="1" parent="1" source="4VnHZdlEQz3FXxKA92Oz-34">
          <mxGeometry width="160" relative="1" as="geometry">
            <mxPoint x="215" y="699" as="sourcePoint" />
            <mxPoint x="264" y="537" as="targetPoint" />
          </mxGeometry>
        </mxCell>
      </root>
    </mxGraphModel>
  </diagram>
</mxfile>
